<!DOCTYPE svg PUBLIC "-//W3C//DTD SVG 1.1//EN" "http://www.w3.org/Graphics/SVG/1.1/DTD/svg11.dtd">
<!-- Uploaded to: SVG Repo, www.svgrepo.com, Transformed by: SVG Repo Mixer Tools -->
<svg fill="#000000" height="64px" width="64px" version="1.1" id="Icons" xmlns="http://www.w3.org/2000/svg" xmlns:xlink="http://www.w3.org/1999/xlink" viewBox="-3.2 -3.2 38.40 38.40" xml:space="preserve" stroke="#000000" stroke-width="0.00032">
<g id="SVGRepo_bgCarrier" stroke-width="0"/>
<g id="SVGRepo_tracerCarrier" stroke-linecap="round" stroke-linejoin="round" stroke="#CCCCCC" stroke-width="3.2"> <path d="M18,5c-0.2,0-0.4,0.1-0.6,0.2L3.7,15h13.5c0.4-1.7,2-3,3.9-3c2.2,0,4,1.8,4,4s-1.8,4-4,4c-1.9,0-3.4-1.3-3.9-3H3v9 c0,0.6,0.4,1,1,1h12.1c0.3,0,0.6-0.1,0.8-0.4c0.2-0.2,0.3-0.5,0.2-0.8c0-0.1,0-0.2,0-0.3c0-0.8,0.7-1.5,1.5-1.5s1.5,0.7,1.5,1.5 c0,0.1,0,0.2,0,0.3c-0.1,0.3,0,0.6,0.2,0.8c0.2,0.2,0.5,0.4,0.8,0.4H28c0.6,0,1-0.4,1-1V16C29,9.9,24.1,5,18,5z M10,24 c-1.7,0-3-1.3-3-3s1.3-3,3-3s3,1.3,3,3S11.7,24,10,24z"/> </g>
<g id="SVGRepo_iconCarrier"> <path d="M18,5c-0.2,0-0.4,0.1-0.6,0.2L3.7,15h13.5c0.4-1.7,2-3,3.9-3c2.2,0,4,1.8,4,4s-1.8,4-4,4c-1.9,0-3.4-1.3-3.9-3H3v9 c0,0.6,0.4,1,1,1h12.1c0.3,0,0.6-0.1,0.8-0.4c0.2-0.2,0.3-0.5,0.2-0.8c0-0.1,0-0.2,0-0.3c0-0.8,0.7-1.5,1.5-1.5s1.5,0.7,1.5,1.5 c0,0.1,0,0.2,0,0.3c-0.1,0.3,0,0.6,0.2,0.8c0.2,0.2,0.5,0.4,0.8,0.4H28c0.6,0,1-0.4,1-1V16C29,9.9,24.1,5,18,5z M10,24 c-1.7,0-3-1.3-3-3s1.3-3,3-3s3,1.3,3,3S11.7,24,10,24z"/> </g>
</svg>